<svg width="207.000000" height="94.000000" viewBox="0 0 207 94" fill="none" xmlns="http://www.w3.org/2000/svg" xmlns:xlink="http://www.w3.org/1999/xlink">
	<desc>
			Created with Pixso.
	</desc>
	<defs>
		<filter id="filter_0_51_dd" x="0.000000" y="0.000000" width="207.000000" height="94.000000" filterUnits="userSpaceOnUse" color-interpolation-filters="sRGB">
			<feFlood flood-opacity="0" result="BackgroundImageFix"/>
			<feColorMatrix in="SourceAlpha" type="matrix" values="0 0 0 0 0 0 0 0 0 0 0 0 0 0 0 0 0 0 127 0" result="hardAlpha"/>
			<feOffset dx="0" dy="0"/>
			<feGaussianBlur stdDeviation="11.3333"/>
			<feComposite in2="hardAlpha" operator="out" k2="-1" k3="1"/>
			<feColorMatrix type="matrix" values="0 0 0 0 1 0 0 0 0 1 0 0 0 0 1 0 0 0 0.15 0"/>
			<feBlend mode="normal" in2="BackgroundImageFix" result="effect_dropShadow_1"/>
			<feBlend mode="normal" in="SourceGraphic" in2="effect_dropShadow_1" result="shape"/>
		</filter>
	</defs>
	<g filter="url(#filter_0_51_dd)">
		<path id="$NOW" d="M136.87 44.96C133.99 47.1 131.56 49.34 129.59 51.67L123.36 42.76L118.17 42.76L129.3 58.24C130.59 56.35 132.11 54.4 133.84 52.4C135.57 50.39 137.6 48.43 139.94 46.5C142.29 44.57 145.02 42.77 148.15 41.1C151.28 39.43 154.9 37.98 158.99 36.75C163.09 35.52 167.75 34.61 173 34C167.98 33.92 163.28 34.35 158.88 35.3Q152.28 36.71 146.74 39.22C143.05 40.9 139.76 42.82 136.87 44.96ZM53.85 49.01C53.27 48.76 52.46 48.63 51.44 48.63L46.45 48.63L46.45 45.32L55.12 45.32C55.12 44.93 54.93 44.54 54.56 44.15C54.19 43.75 53.67 43.42 53.01 43.16C52.35 42.9 51.58 42.77 50.7 42.77L46.45 42.77L46.45 40.26L43.02 40.26L43.02 42.77L38.56 42.77Q37.02 42.77 36.09 43.25Q35.32 43.66 34.9 44.29Q34.82 44.42 34.75 44.56Q34.7 44.65 34.66 44.75L34.66 44.75L34.66 44.76Q34.34 45.49 34.34 46.37L34.34 47.97C34.34 48.64 34.46 49.21 34.69 49.69C34.94 50.17 35.35 50.53 35.94 50.79C36.53 51.05 37.34 51.18 38.36 51.18L43.02 51.18L43.02 54.95L34 54.95Q34 55.53 34.55 56.12C34.92 56.51 35.43 56.84 36.09 57.1Q37.09 57.49 38.41 57.49L43.02 57.49L43.02 60L46.45 60L46.45 57.49L51.24 57.49C52.26 57.49 53.09 57.33 53.71 57C54.33 56.68 54.78 56.25 55.05 55.7Q55.12 55.57 55.17 55.44Q55.47 54.73 55.47 53.89L55.47 51.83C55.47 51.17 55.35 50.6 55.11 50.12C54.86 49.64 54.44 49.27 53.85 49.01ZM75.92 44.78Q75.79 45.18 75.79 45.61L75.79 53.35L65.48 44.35Q64.25 43.35 62.84 42.98Q62.01 42.76 61.11 42.76L59.09 42.76L59.09 57.49L63.59 57.49L63.59 46.78L73.9 55.88C75.21 56.95 76.68 57.49 78.29 57.49L80.3 57.49L80.3 42.76L79.67 42.76C78.79 42.76 78.06 42.89 77.48 43.14C76.91 43.4 76.48 43.75 76.2 44.18Q76.02 44.47 75.92 44.78ZM84.93 44.79Q85.32 44.02 86.16 43.47C86.9 43 87.83 42.76 88.97 42.76L101.52 42.76Q103.21 42.76 104.32 43.47Q105.16 44.02 105.54 44.78Q105.66 45.03 105.74 45.31L84.73 45.31Q84.81 45.03 84.93 44.79ZM122.06 50.49L120.3 52.81L117.17 48.34L115.53 45.98L113.28 42.76L108.09 42.76L119.22 58.24L123.52 52.51L122.06 50.49ZM127.77 46.86L130.84 42.76L127.98 42.76L126.37 44.86L127.77 46.86ZM43.02 45.32L43.02 48.63L38.43 48.63L38.43 45.32L43.02 45.32ZM101.34 48.85L105.84 48.85L105.84 54.18C105.84 54.79 105.66 55.35 105.31 55.85C104.95 56.35 104.45 56.75 103.8 57.05C103.16 57.34 102.4 57.49 101.52 57.49L88.97 57.49Q87.65 57.49 86.67 57.05C86.02 56.75 85.52 56.35 85.16 55.85C84.81 55.35 84.63 54.79 84.63 54.18L84.63 48.85L89.14 48.85L89.14 54.94L101.34 54.94L101.34 48.85ZM51.37 51.18L51.37 54.95L46.45 54.95L46.45 51.18L51.37 51.18Z" fill="#FFFFFF" fill-opacity="1.000000" fill-rule="evenodd"/>
	</g>
</svg>
