<svg width="27.530823" height="32.993389" viewBox="0 0 27.5308 32.9934" fill="none" xmlns="http://www.w3.org/2000/svg" xmlns:xlink="http://www.w3.org/1999/xlink">
	<desc>
			Created with Pixso.
	</desc>
	<defs/>
	<path id="Vector" d="M16.58 11.76C17.58 11.26 18.86 10.52 20.14 9.5C20.41 10.07 20.44 10.56 20.3 10.95C20.2 11.23 20.01 11.48 19.77 11.67C19.51 11.88 19.18 12.03 18.81 12.12C18.12 12.27 17.31 12.18 16.58 11.76ZM16.75 16.93L18.08 17.7C15.37 19.23 14.64 22.07 13.76 24.84C12.89 22.07 12.15 19.23 9.44 17.7L10.77 16.93C10.89 16.88 11 16.79 11.08 16.67C11.15 16.56 11.19 16.42 11.19 16.28C11.06 13.69 11.76 12.54 12.7 11.82C13.03 11.57 13.4 11.44 13.76 11.44C14.12 11.44 14.49 11.57 14.83 11.82C15.76 12.54 16.46 13.69 16.34 16.28C16.33 16.42 16.37 16.56 16.44 16.67C16.52 16.79 16.63 16.88 16.75 16.93ZM13.76 0C15.29 0.04 16.83 0.34 18.17 0.92C19.09 1.33 19.95 1.86 20.73 2.5C21.09 2.79 21.38 3.07 21.7 3.39C22.56 3.42 23.82 2.45 24.41 1.55C23.4 4.88 18.8 8.81 15.62 10.31C15.62 10.31 15.62 10.31 15.62 10.31C15.05 9.87 14.4 9.65 13.76 9.65C13.12 9.65 12.48 9.87 11.9 10.31C11.9 10.31 11.9 10.31 11.9 10.31C8.72 8.81 4.12 4.88 3.11 1.55C3.7 2.45 4.96 3.42 5.82 3.39C6.14 3.07 6.43 2.79 6.79 2.5C7.57 1.86 8.43 1.33 9.35 0.92C10.69 0.34 12.23 0.04 13.76 0ZM10.94 11.76C9.94 11.26 8.66 10.52 7.38 9.5C7.12 10.07 7.09 10.56 7.22 10.95C7.32 11.23 7.51 11.48 7.75 11.67C8.02 11.88 8.34 12.03 8.71 12.12C9.4 12.27 10.21 12.18 10.94 11.76Z" fill="#FFFFFF" fill-opacity="1.000000" fill-rule="evenodd"/>
	<path id="Vector" d="M21.54 8.26C22.24 7.54 22.86 6.75 23.36 6.04L23.61 6.52C24.42 8.17 24.85 9.8 24.85 11.64L24.85 14.56L24.86 16.08C24.92 19.8 25.72 23.56 27.53 27L23.74 23.93L21.07 28.31L18.25 25.64L13.76 32.99L9.27 25.64L6.45 28.31L3.78 23.93L0 27C1.8 23.56 2.6 19.8 2.66 16.08L2.68 14.56L2.67 11.64C2.67 9.8 3.1 8.17 3.91 6.52L4.16 6.04C4.66 6.75 5.28 7.54 5.99 8.26L5.77 8.72C5.34 9.61 5.2 10.61 5.53 11.56C5.74 12.17 6.14 12.69 6.64 13.09C7.13 13.48 7.71 13.74 8.31 13.88C8.71 13.97 9.11 14.01 9.51 14C9.42 14.53 9.38 15.08 9.38 15.65L5.81 17.72L8.56 19.28C8.78 19.4 8.99 19.55 9.19 19.71C11.46 21.76 12.82 27.84 13.76 30.81C14.7 27.84 16.06 21.76 18.33 19.71C18.53 19.55 18.74 19.4 18.96 19.28L21.71 17.72L18.15 15.65C18.14 15.08 18.1 14.53 18.01 14C18.41 14.01 18.81 13.97 19.21 13.88C19.81 13.74 20.39 13.48 20.88 13.09C21.39 12.69 21.78 12.17 21.99 11.56C22.32 10.61 22.18 9.61 21.76 8.72L21.54 8.26L21.54 8.26Z" fill="#FFFFFF" fill-opacity="1.000000" fill-rule="evenodd"/>
</svg>
