<svg width="34.388062" height="27.501194" viewBox="0 0 34.3881 27.5012" fill="none" xmlns="http://www.w3.org/2000/svg" xmlns:xlink="http://www.w3.org/1999/xlink">
	<desc>
			Created with Pixso.
	</desc>
	<defs/>
	<path id="Vector" d="M5.58 20.99C5.79 20.77 6.08 20.65 6.38 20.65L33.82 20.65C34.32 20.65 34.57 21.27 34.22 21.63L28.79 27.16C28.58 27.38 28.3 27.5 28 27.5L0.56 27.5C0.06 27.5 -0.19 26.88 0.16 26.52L5.58 20.99Z" fill="#FFFFFF" fill-opacity="1.000000" fill-rule="nonzero"/>
	<path id="Vector" d="M5.58 0.33C5.79 0.12 6.08 0 6.38 0L33.82 0C34.32 0 34.57 0.61 34.22 0.97L28.79 6.5C28.58 6.72 28.3 6.84 28 6.84L0.56 6.84C0.06 6.84 -0.19 6.22 0.16 5.86L5.58 0.33Z" fill="#FFFFFF" fill-opacity="1.000000" fill-rule="nonzero"/>
	<path id="Vector" d="M28.79 10.59C28.58 10.38 28.3 10.26 28 10.26L0.56 10.26C0.06 10.26 -0.19 10.88 0.16 11.24L5.58 16.77C5.79 16.98 6.08 17.1 6.38 17.1L33.82 17.1C34.32 17.1 34.57 16.48 34.22 16.12L28.79 10.59Z" fill="#FFFFFF" fill-opacity="1.000000" fill-rule="nonzero"/>
</svg>
