<svg width="32.348694" height="26.842556" viewBox="0 0 32.3487 26.8426" fill="none" xmlns="http://www.w3.org/2000/svg" xmlns:xlink="http://www.w3.org/1999/xlink">
	<desc>
			Created with Pixso.
	</desc>
	<defs/>
	<path id="Path-3" d="M2.23 11.59C10.9 7.77 16.7 5.31 19.62 4.09C27.87 0.65 29.59 0.04 30.7 0C30.93 0 31.49 0.04 31.86 0.32C32.14 0.55 32.23 0.88 32.28 1.11C32.32 1.35 32.37 1.86 32.32 2.28C31.86 6.98 29.96 18.49 28.94 23.75C28.52 25.99 27.69 26.73 26.9 26.83C25.18 26.97 23.84 25.66 22.17 24.59C19.57 22.87 18.09 21.8 15.54 20.12C12.62 18.16 14.52 17.09 16.19 15.37C16.6 14.9 24.26 7.96 24.4 7.31C24.4 7.22 24.44 6.94 24.26 6.8C24.07 6.66 23.84 6.7 23.65 6.75C23.37 6.8 19.2 9.59 11.09 15.09C9.88 15.93 8.81 16.3 7.84 16.3C6.77 16.3 4.73 15.69 3.2 15.18C1.35 14.58 -0.14 14.25 0 13.22C0.1 12.71 0.84 12.15 2.23 11.59Z" fill="#FFFFFF" fill-opacity="1.000000" fill-rule="evenodd"/>
</svg>
